<svg width="109" height="109" viewBox="0 0 109 109" fill="none" xmlns="http://www.w3.org/2000/svg">
<rect width="109" height="109" fill="#FFC107"/>
<path d="M29.071 36.6301C31.4994 34.1424 33.9279 31.8999 35.0033 32.3554C36.7379 33.0562 35.0033 35.9644 33.9626 37.6813C33.0953 39.1529 24.0407 51.3115 24.0407 59.7909C24.0407 64.2759 25.7059 67.99 28.6894 70.2325C31.2913 72.1947 34.7258 72.7903 37.848 71.8443C41.56 70.7581 44.6129 66.9388 48.4637 62.1385C52.6613 56.9177 58.2814 50.0851 62.6178 50.0851C68.2726 50.0851 68.342 53.624 68.7236 56.3571C55.6101 58.5996 50.0595 69.2164 50.0595 75.173C50.0595 81.1296 55.0551 86 61.1955 86C66.8502 86 76.0782 81.3398 77.4659 64.6263H86V55.8665H77.4312C76.9108 50.0851 73.6498 41.1502 63.4504 41.1502C55.6448 41.1502 48.9493 47.8426 46.3128 51.1012C44.3007 53.6591 39.1663 59.7909 38.3684 60.6318C37.5011 61.683 36.0094 63.5751 34.5176 63.5751C32.9565 63.5751 32.0198 60.6669 33.2687 56.8476C34.4829 53.0284 38.1256 46.8265 39.6867 44.5139C42.3926 40.5195 44.1966 37.7864 44.1966 33.0211C44.1966 25.4177 38.5072 23 35.489 23C30.9097 23 26.9202 26.5039 26.0529 27.3799C24.804 28.6413 23.7632 29.6924 23 30.6385L29.071 36.6301ZM61.2996 77.4855C60.2241 77.4855 58.7324 76.5745 58.7324 74.9627C58.7324 72.8604 61.2649 67.2542 68.6889 65.292C67.6481 74.7175 63.728 77.4855 61.2996 77.4855Z" fill="#343A40"/>
</svg>
